<svg class="img-fluid" id="outputsvg" xmlns="http://www.w3.org/2000/svg" viewBox="0 0 11520 20480"><g id="l4NH4O95Q7bxakkhv38pDPP" fill="rgb(101,108,162)" style="transform: none;"><g style="transform: none;"><path id="pBTof29tO" d="M870 20456 c0 -79 437 -312 685 -364 81 -18 290 -24 430 -13 445 34 439 34 576 22 230 -21 311 -36 409 -74 8 -3 51 -17 94 -32 235 -78 514 -237 727 -413 156 -129 323 -335 461 -570 205 -346 303 -470 472 -591 98 -71 358 -207 415 -217 20 -4 41 -10 46 -14 6 -3 37 -12 70 -19 33 -7 78 -18 100 -24 58 -17 410 -15 505 3 88 17 565 21 590 5 8 -5 58 -18 110 -28 172 -32 182 -35 365 -107 173 -67 470 -246 600 -361 17 -15 53 -46 81 -70 95 -82 275 -299 350 -422 16 -27 39 -65 52 -85 12 -21 36 -64 53 -97 59 -113 194 -300 275 -381 44 -44 121 -107 170 -140 78 -52 264 -150 334 -177 14 -5 34 -13 45 -17 11 -4 40 -13 65 -20 25 -7 54 -16 66 -20 87 -34 368 -37 759 -10 231 16 410 6 555 -30 19 -5 60 -14 90 -21 30 -6 64 -15 75 -19 11 -4 36 -13 55 -20 19 -7 45 -16 58 -21 12 -5 32 -13 45 -18 12 -4 80 -36 150 -70 223 -106 428 -247 602 -412 43 -41 81 -69 94 -69 l21 0 0 1839 0 1838 -77 7 c-109 9 -402 6 -508 -5 -49 -5 -160 -12 -245 -15 -237 -9 -351 17 -595 135 -308 150 -458 299 -656 650 -78 139 -190 301 -283 410 l-69 81 -4109 0 -4108 0 0 -24z"></path><path id="pa6JNxXoU" d="M83 13248 c-6 -7 -27 -43 -47 -79 l-36 -66 0 -1164 0 -1165 103 -76 c223 -166 408 -376 553 -629 226 -396 306 -495 513 -633 80 -54 262 -149 361 -189 14 -5 34 -13 45 -18 23 -8 63 -18 115 -26 19 -3 41 -10 48 -16 19 -15 424 -21 497 -8 200 38 538 33 730 -9 200 -44 216 -48 307 -89 26 -12 50 -21 53 -21 3 0 27 -9 53 -21 484 -211 809 -507 1082 -984 124 -216 188 -306 299 -416 118 -117 265 -218 396 -269 11 -4 38 -16 60 -25 108 -47 132 -55 200 -73 136 -36 385 -40 787 -14 162 11 511 -9 524 -29 3 -5 20 -9 39 -9 19 0 44 -4 57 -9 13 -5 50 -17 83 -26 88 -26 238 -87 354 -144 290 -144 539 -343 737 -592 60 -76 215 -315 298 -462 80 -140 243 -327 350 -400 161 -111 365 -211 501 -247 17 -5 57 -16 90 -25 81 -23 429 -26 560 -5 113 18 508 20 580 3 28 -6 84 -17 125 -23 41 -6 83 -16 92 -21 10 -5 27 -9 38 -9 11 0 28 -4 38 -9 9 -5 44 -19 77 -31 33 -12 71 -27 85 -32 14 -6 34 -14 45 -18 11 -4 76 -35 145 -70 129 -64 238 -132 373 -232 45 -33 89 -58 103 -58 l24 0 -1 1263 0 1262 -57 46 c-167 135 -453 289 -662 359 -230 76 -324 92 -585 97 -167 4 -278 1 -407 -11 -218 -20 -307 -20 -424 -1 -239 39 -534 186 -723 361 -90 85 -150 162 -240 314 -34 58 -66 112 -71 120 -5 8 -21 35 -36 60 -241 402 -507 642 -939 851 -171 83 -274 118 -501 169 -136 31 -450 38 -704 15 -371 -33 -538 -9 -800 118 -269 129 -449 290 -586 524 -229 388 -303 493 -459 649 -273 271 -750 522 -1100 578 -256 41 -396 44 -730 15 -387 -33 -537 -7 -820 140 -313 163 -408 263 -675 713 -115 194 -190 294 -317 423 -167 170 -477 385 -554 385 -20 0 -41 -6 -46 -12z"></path><path id="p13SqJFs7I" d="M0 2871 l0 -1421 23 -9 c225 -88 483 -261 687 -463 143 -142 230 -257 352 -468 138 -240 199 -330 290 -425 l80 -85 3534 0 3534 0 0 24 c0 19 -20 39 -97 94 -240 171 -550 312 -819 372 -155 35 -396 46 -644 29 -325 -21 -525 -18 -630 9 -118 32 -171 53 -302 118 -161 81 -229 128 -345 238 -110 105 -149 159 -309 426 -161 271 -278 419 -442 563 -177 155 -434 314 -645 399 -102 41 -304 99 -417 120 -152 28 -472 30 -751 6 -259 -23 -367 -12 -564 55 -145 50 -340 157 -450 247 -146 119 -218 212 -388 500 -194 331 -374 533 -632 711 -302 210 -683 357 -972 376 l-93 6 0 -1422z"></path></g></g><g id="l7LYgERPRGiwZkg0sl0cyqP" fill="rgb(97,179,190)" style="transform: none;"><g style="transform: none;"><path id="pOaEVzQ79" d="M68 18418 c-9 -7 -28 -35 -42 -63 l-26 -50 0 -1408 0 -1408 22 3 c16 2 35 27 68 88 26 47 51 84 56 83 19 -3 148 -86 242 -155 205 -151 339 -295 489 -523 36 -55 74 -112 84 -127 11 -15 19 -29 19 -32 0 -12 136 -237 173 -286 91 -122 164 -188 327 -297 152 -102 388 -201 535 -223 104 -16 347 -16 505 2 172 18 476 16 618 -5 376 -56 851 -304 1138 -595 121 -121 227 -264 344 -460 161 -273 210 -343 305 -437 101 -101 176 -154 346 -244 294 -155 507 -186 969 -139 319 32 637 -5 900 -106 95 -36 260 -116 375 -181 297 -167 563 -442 760 -783 87 -150 206 -329 260 -389 50 -57 176 -163 234 -196 20 -12 51 -32 69 -44 62 -41 236 -121 347 -158 108 -37 113 -38 300 -43 119 -3 254 0 365 9 399 32 635 8 914 -91 182 -64 406 -178 516 -260 168 -126 189 -140 214 -140 l26 0 0 1373 0 1372 -57 45 c-141 113 -351 246 -488 311 -33 16 -67 33 -75 38 -8 5 -49 19 -90 32 -41 12 -107 33 -147 46 -156 50 -390 77 -618 69 -458 -15 -711 -17 -765 -6 -179 38 -495 199 -626 319 -117 107 -257 287 -312 401 -14 30 -136 225 -184 293 -119 174 -310 366 -483 487 -82 59 -286 177 -350 204 -159 67 -295 116 -348 125 -32 6 -78 17 -102 25 -86 30 -381 41 -674 26 -376 -19 -512 -17 -579 9 -29 12 -66 21 -82 21 -16 0 -86 27 -155 60 -69 33 -128 60 -130 60 -11 0 -144 86 -190 123 -115 94 -226 212 -266 284 -22 40 -44 75 -50 78 -5 4 -21 30 -35 58 -25 50 -46 85 -143 247 -76 127 -239 319 -371 436 -117 104 -427 292 -601 365 -131 54 -352 118 -454 131 -139 16 -464 21 -575 7 -59 -7 -210 -12 -345 -12 -227 0 -242 1 -282 21 -23 12 -48 22 -56 22 -7 0 -49 17 -93 38 -43 21 -92 42 -108 46 -34 8 -121 60 -231 138 -125 88 -267 247 -355 398 -18 30 -45 74 -62 97 -16 24 -36 59 -44 79 -8 19 -31 59 -51 87 -20 29 -46 66 -57 82 -129 187 -368 435 -470 487 -22 11 -70 43 -104 70 -35 27 -79 56 -98 64 -41 17 -125 18 -146 2z"></path><path id="pCBMIH1jt" d="M0 7682 l0 -1308 108 -82 c214 -162 357 -326 500 -577 19 -33 43 -75 54 -94 99 -174 251 -344 380 -428 162 -105 367 -191 508 -213 92 -14 301 -12 465 5 312 32 518 12 800 -80 118 -39 326 -142 438 -218 123 -83 127 -86 243 -193 143 -132 218 -232 380 -510 143 -243 218 -330 387 -448 122 -86 334 -179 482 -211 70 -16 106 -17 310 -9 126 5 329 8 450 8 241 0 325 -12 512 -73 181 -59 454 -211 623 -346 135 -108 306 -312 407 -484 167 -286 208 -345 319 -453 115 -111 419 -272 580 -308 103 -23 310 -27 489 -9 163 16 437 16 525 0 285 -50 515 -143 765 -310 195 -129 405 -341 500 -503 97 -167 212 -349 258 -411 109 -143 248 -247 481 -356 l141 -66 208 -3 207 -3 0 1255 0 1256 -45 0 c-24 0 -68 9 -97 19 -29 11 -67 22 -84 26 -18 3 -74 28 -125 54 -269 138 -386 232 -498 401 -43 63 -84 129 -93 145 -34 66 -72 131 -86 147 -8 10 -31 44 -51 77 -92 152 -226 303 -363 410 -170 133 -191 146 -313 210 -170 89 -404 177 -505 191 -36 5 -108 16 -160 25 -110 19 -426 16 -590 -5 -52 -7 -135 -12 -185 -12 -92 2 -259 31 -317 56 -285 122 -444 225 -557 359 -74 89 -100 129 -212 317 -41 69 -101 161 -133 205 -33 44 -78 105 -100 135 -51 68 -148 168 -201 206 -22 16 -49 37 -60 46 -50 42 -118 89 -157 109 -24 12 -58 32 -76 46 -37 28 -234 119 -332 153 -36 13 -69 27 -75 32 -5 4 -26 8 -46 8 -20 0 -56 7 -80 16 -94 35 -426 54 -585 34 -50 -6 -194 -11 -320 -11 -228 0 -229 0 -314 29 -204 72 -396 177 -512 282 -63 56 -224 262 -256 328 -40 79 -137 239 -172 282 -20 25 -49 65 -65 90 -16 25 -83 99 -149 165 -94 94 -146 136 -231 189 -60 38 -119 77 -130 87 -28 25 -354 176 -407 189 -24 5 -61 16 -83 24 -22 9 -59 15 -83 16 -24 0 -57 8 -75 17 -43 23 -450 31 -612 12 -255 -28 -423 -20 -538 27 -33 13 -70 24 -81 24 -12 0 -31 7 -42 15 -12 8 -59 34 -105 58 -46 24 -113 61 -149 83 -72 43 -258 222 -280 269 -8 17 -30 52 -49 80 -19 27 -45 74 -59 105 -14 30 -39 73 -56 95 -18 22 -45 63 -61 90 -16 28 -47 74 -69 104 -23 30 -55 73 -73 97 -18 23 -38 46 -46 51 -7 4 -23 22 -35 40 -12 17 -78 77 -147 132 -105 85 -131 101 -160 101 l-35 0 0 -1308z"></path></g></g><g id="l7cshX7zQHhbGfz3emz1n52" fill="rgb(253,154,9)" style="transform: none;"><g style="transform: none;"><path id="pkMDFLYnx" d="M0 19365 c0 -704 4 -1115 10 -1115 5 0 24 30 42 66 19 38 43 71 55 77 35 16 90 -6 169 -66 38 -30 88 -64 110 -75 103 -52 341 -300 470 -487 11 -16 37 -53 57 -82 20 -28 43 -68 51 -87 8 -20 28 -55 44 -79 17 -23 44 -67 62 -97 88 -151 230 -310 355 -398 110 -78 197 -130 231 -138 16 -4 65 -25 108 -46 44 -21 86 -38 93 -38 8 0 30 -9 51 -19 54 -28 302 -37 542 -20 209 15 506 18 625 6 116 -11 327 -70 485 -134 179 -72 488 -258 610 -367 132 -117 295 -309 371 -436 97 -162 118 -197 143 -247 14 -28 30 -54 35 -58 6 -3 28 -38 50 -78 40 -72 151 -190 266 -284 46 -37 179 -123 190 -123 2 0 61 -27 130 -60 69 -33 139 -60 155 -60 16 0 53 -10 82 -21 46 -19 74 -21 223 -22 94 0 278 5 410 13 263 14 537 3 621 -26 24 -8 69 -19 101 -25 53 -9 189 -58 348 -125 64 -27 268 -145 350 -204 173 -121 364 -313 483 -487 48 -68 170 -263 184 -293 55 -114 195 -294 312 -401 131 -120 447 -281 626 -319 54 -11 453 -9 795 6 195 8 438 -20 588 -69 40 -13 106 -34 147 -46 41 -13 82 -27 90 -32 8 -5 42 -22 75 -38 138 -65 357 -205 484 -308 29 -24 61 -43 72 -43 19 0 19 31 18 1543 l-1 1542 -96 87 c-200 179 -368 293 -589 399 -143 69 -171 81 -253 109 -19 7 -44 16 -55 20 -11 4 -45 13 -75 19 -30 7 -71 16 -90 21 -19 4 -60 14 -90 21 -79 17 -476 19 -645 3 -243 -23 -480 -17 -575 15 -14 5 -45 14 -70 21 -25 7 -55 16 -67 21 -13 5 -33 13 -45 17 -64 23 -254 124 -332 176 -49 33 -126 96 -170 140 -81 81 -216 268 -275 381 -17 33 -41 76 -53 97 -13 20 -36 58 -52 85 -75 123 -255 340 -350 422 -28 24 -64 55 -81 70 -106 93 -313 225 -485 309 -89 43 -98 46 -225 94 -83 31 -95 35 -255 66 -52 10 -104 23 -115 28 -34 15 -559 11 -645 -6 -94 -17 -389 -20 -445 -3 -22 6 -67 17 -100 24 -33 7 -64 16 -70 19 -5 4 -26 10 -46 14 -57 10 -317 146 -415 217 -169 121 -267 245 -472 591 -138 235 -305 441 -461 570 -213 176 -492 335 -727 413 -43 15 -86 29 -94 32 -101 39 -186 54 -424 74 -150 13 -192 11 -611 -21 -130 -10 -300 -5 -380 12 -197 41 -507 190 -652 314 l-51 44 -441 0 -441 0 0 -1115z"></path><path id="pqLIP7r4C" d="M0 9885 c0 -914 0 -925 20 -925 24 0 262 -190 292 -233 12 -18 28 -36 35 -40 12 -7 37 -39 129 -161 17 -23 43 -63 59 -91 16 -27 43 -68 61 -90 17 -22 42 -65 56 -95 14 -31 40 -78 59 -105 19 -28 41 -63 49 -80 22 -47 208 -226 280 -269 36 -22 103 -59 149 -83 46 -24 93 -50 105 -58 11 -8 30 -15 42 -15 11 0 48 -11 81 -24 115 -47 334 -57 598 -27 157 19 508 10 552 -12 18 -10 51 -17 75 -17 24 -1 61 -7 83 -16 22 -8 59 -19 83 -24 53 -13 379 -164 407 -189 11 -10 70 -49 130 -87 85 -53 137 -95 231 -189 66 -66 133 -140 149 -165 16 -25 45 -65 65 -90 35 -43 132 -203 172 -282 32 -66 193 -272 256 -328 115 -105 306 -209 512 -282 l85 -30 252 0 c139 0 299 5 355 12 157 18 433 1 527 -34 24 -9 60 -16 80 -16 20 0 41 -4 47 -8 5 -5 38 -19 74 -32 98 -34 295 -125 332 -153 18 -14 52 -34 76 -46 39 -20 107 -67 157 -109 11 -9 38 -30 60 -46 53 -38 150 -138 201 -206 22 -30 67 -91 100 -135 32 -44 92 -136 133 -205 112 -188 138 -228 212 -317 113 -134 272 -237 557 -359 116 -50 370 -70 562 -45 171 22 419 25 530 6 52 -9 124 -20 160 -25 101 -14 335 -102 505 -191 122 -64 143 -77 313 -210 137 -107 271 -258 363 -410 20 -33 43 -67 51 -77 14 -16 52 -81 86 -147 9 -16 50 -82 93 -145 112 -169 229 -263 498 -401 51 -26 107 -51 125 -54 17 -4 55 -15 84 -26 30 -11 79 -19 112 -19 l60 0 -1 1178 0 1177 -62 42 c-34 23 -111 76 -172 116 -60 41 -166 103 -235 137 -140 70 -148 74 -275 120 -33 12 -68 26 -77 31 -10 5 -27 9 -38 9 -11 0 -28 4 -38 9 -9 5 -51 15 -92 21 -41 6 -95 17 -120 23 -55 13 -490 18 -575 6 -209 -30 -469 -31 -570 -4 -33 9 -73 20 -90 25 -136 36 -340 136 -501 247 -107 73 -270 260 -350 400 -83 147 -238 386 -298 462 -198 249 -447 448 -737 592 -116 57 -266 118 -354 144 -33 9 -70 21 -83 26 -13 5 -38 9 -57 9 -19 0 -36 4 -39 9 -6 10 -66 16 -276 30 -147 10 -267 8 -465 -9 -228 -20 -438 -12 -570 22 -67 17 -91 26 -200 73 -22 9 -49 21 -60 25 -131 51 -278 152 -396 269 -111 110 -175 200 -299 416 -273 477 -598 773 -1082 984 -26 12 -50 21 -53 21 -3 0 -27 9 -53 21 -82 36 -105 44 -214 68 -27 6 -67 15 -90 21 -74 16 -110 21 -228 31 -137 11 -449 3 -505 -14 -54 -16 -476 -17 -496 -1 -8 7 -30 14 -49 17 -52 8 -92 18 -115 26 -11 5 -31 13 -45 18 -99 40 -281 135 -361 189 -207 138 -287 237 -513 633 -96 168 -247 363 -368 475 -100 92 -285 235 -305 236 -10 0 -13 -192 -13 -925z"></path><path id="p47m89B73" d="M0 745 l0 -745 740 0 c407 0 740 3 740 6 0 4 -40 48 -89 99 -98 103 -157 189 -299 435 -122 211 -209 326 -352 468 -175 173 -391 327 -580 414 -83 39 -150 68 -156 68 -2 0 -4 -335 -4 -745z"></path></g></g><g id="l4RNjwx3ivnQ7UaDEpoh4wV" fill="rgb(253,168,229)" style="transform: none;"><g style="transform: none;"><path id="pUEZGFFYh" d="M9040 20473 c1 -5 34 -46 76 -93 98 -111 204 -264 296 -425 202 -355 343 -494 649 -645 224 -110 351 -141 575 -141 77 0 180 6 230 13 57 8 190 13 372 13 l282 0 0 642 0 643 -1240 0 c-682 0 -1240 -3 -1240 -7z"></path><path id="pFP39Kcmu" d="M75 15638 c-21 -40 -46 -85 -57 -100 -17 -25 -18 -76 -18 -1262 0 -680 4 -1236 8 -1236 5 0 28 38 52 86 24 47 50 90 57 96 10 8 39 -5 119 -53 229 -138 438 -321 578 -507 35 -46 105 -154 156 -240 162 -272 230 -372 320 -462 103 -105 184 -162 355 -251 292 -152 441 -175 885 -139 247 21 291 22 427 11 84 -6 200 -20 257 -30 354 -64 813 -308 1081 -575 156 -156 230 -261 459 -649 137 -234 317 -395 586 -524 265 -128 455 -154 860 -118 244 22 510 16 644 -15 227 -51 330 -86 501 -169 432 -209 698 -449 939 -851 15 -25 31 -52 36 -60 5 -8 37 -62 71 -120 90 -152 150 -229 240 -314 189 -175 484 -322 723 -361 118 -19 265 -19 484 1 253 23 535 15 692 -19 323 -72 673 -239 910 -434 35 -29 68 -53 72 -53 4 0 8 559 8 1243 l0 1242 -88 64 c-48 35 -103 76 -122 91 -72 54 -251 152 -380 208 -143 61 -329 116 -490 143 -101 17 -405 17 -621 0 -109 -9 -237 -12 -336 -9 -150 6 -166 8 -269 43 -110 37 -284 117 -346 158 -18 12 -49 32 -69 44 -58 33 -184 139 -234 196 -54 60 -173 239 -260 389 -197 341 -463 616 -760 783 -356 202 -621 282 -990 301 -76 4 -171 2 -230 -4 -417 -46 -589 -40 -789 27 -123 42 -301 130 -421 210 -38 25 -111 86 -160 136 -95 94 -144 164 -305 437 -117 196 -223 339 -344 460 -287 291 -761 539 -1138 595 -141 21 -501 24 -673 5 -150 -16 -357 -17 -455 -2 -142 23 -380 122 -530 223 -163 109 -236 175 -327 297 -37 49 -173 274 -173 286 0 3 -8 17 -19 32 -10 15 -48 72 -84 127 -96 146 -222 300 -313 381 -148 132 -389 298 -452 310 -27 6 -31 2 -67 -68z"></path><path id="pNuB8xafq" d="M0 5331 l0 -1068 78 -6 c285 -24 662 -172 957 -376 258 -178 438 -380 632 -711 170 -288 242 -381 388 -500 110 -90 305 -197 450 -247 203 -69 324 -81 612 -56 431 36 670 19 943 -66 152 -47 202 -67 322 -127 341 -171 596 -382 790 -654 30 -41 98 -149 152 -240 160 -267 199 -321 309 -426 116 -110 184 -157 345 -238 130 -65 184 -86 302 -118 74 -20 110 -22 280 -23 107 0 285 6 395 14 229 16 444 5 599 -29 196 -44 436 -140 641 -257 95 -54 275 -181 275 -194 0 -5 557 -9 1366 -9 1018 0 1365 3 1362 11 -2 7 -33 22 -68 34 -257 89 -491 245 -617 412 -46 62 -161 244 -258 411 -95 162 -305 374 -500 503 -385 257 -739 352 -1190 319 -88 -6 -234 -14 -325 -17 -144 -4 -177 -2 -259 16 -167 37 -469 197 -585 309 -111 108 -152 167 -319 453 -101 172 -272 376 -407 484 -169 135 -442 287 -623 346 -193 63 -268 73 -542 74 -137 0 -340 -4 -450 -9 -176 -8 -210 -7 -280 9 -148 32 -360 125 -482 211 -169 118 -244 205 -387 448 -162 278 -237 378 -380 510 -116 107 -120 110 -243 193 -165 112 -377 206 -593 264 -183 49 -442 61 -705 34 -254 -26 -396 -18 -550 31 -93 30 -264 113 -363 177 -129 84 -281 254 -380 428 -11 19 -35 61 -54 94 -95 167 -239 355 -344 450 -94 86 -256 205 -276 205 -17 0 -18 -55 -18 -1069z"></path></g></g></svg>